#!OML:ASF F:\VICON\USERDATA\INSTALL\rory3\rory3.ASF
:FULLY-SPECIFIED
:DEGREES
60
root 0.3072187169709023 17.704403492059594 13.593694887719629 -0.5401254628580174 -3.6716726443215215 -6.953686666516624
lfemur -26.279398777920058 -6.565997932260496 -10.592103658179425
ltibia 14.062119431409698
lfoot -5.4803850608284055 -4.8390070484690835
ltoes -3.507660418434505
rfemur -0.560914918265615 6.147216147179728 32.44885505346803
rtibia 27.34127716924513
rfoot -10.161157079217867 -6.1618718493346645
rtoes 0.7425843197768867
lowerback 10.04386089493363 1.5188824126008293 4.363824923323009
upperback 0.052154649680749926 2.7710746777843 1.7908091050980384
thorax -4.903870522662899 1.5146980406482444 -1.7221094358142903
lowerneck -15.268193507363977 -2.9020685365324073 -3.1293211072267493
upperneck 22.291109782916216 -3.8061448275503103 0.682282524228033
head 9.684174293692418 -1.7909405240200453 0.2713843037479809
lclavicle -1.3905256636838253e-15 -1.8578642811468442e-15
lhumerus -35.33641988144264 8.13283760684195 79.68035443389482
lradius 20.793496841250914
lwrist 0.4553181290592776
lhand -27.016537052755318 23.652051332768668
lfingers 7.125019999999999
lthumb -0.5853298463759082 53.81931204333763
rclavicle -1.3882907822559783e-15 -1.8445223008294358e-15
rhumerus -23.24404929696437 -15.474921156896574 -79.57679678801094
rradius 28.298815967225295
rwrist -1.9548707404882695
rhand -17.895046290295603 22.666011835927552
rfingers 7.125019999999999
rthumb 8.234054566779825 -7.181219872054139
61
root 0.38964318065888753 17.670213311986142 14.772218936289782 -1.0870533009663275 -3.4269463356380285 -6.2820480047388845
lfemur -25.69124005930938 -5.20720524809989 -12.196052334048353
ltibia 16.894933384415772
lfoot -3.748000722313975 -5.304122613597087
ltoes -3.3254188160745684
rfemur 0.202556649016417 6.064063471590357 31.96257249353693
rtibia 30.835272459575545
rfoot -8.803189947866736 -5.545881753020022
rtoes 0.7397911401621844
lowerback 10.004894118769153 1.5423694220663084 3.9890762626530862
upperback 0.02205187628906674 2.8033957452566742 1.650506484573623
thorax -4.86077903528022 1.55978347869716 -1.7519183586059308
lowerneck -15.254821566050902 -2.916668587181039 -3.1221505140224712
upperneck 22.32763297364974 -3.833253876989322 0.7853861452239735
head 9.708717089179435 -1.7773983892734786 0.27611488919033406
lclavicle -1.390526644939643e-15 -1.857865611791847e-15
lhumerus -35.62551517800107 8.438428804050009 79.43797709631511
lradius 19.9143169347865
lwrist -0.5201396769147828
lhand -27.003578124862173 23.59023798689011
lfingers 7.125019999999999
lthumb -0.5670277785486917 53.75762294926593
rclavicle -1.3882906786087485e-15 -1.8445222057525112e-15
rhumerus -23.70224794214879 -16.39270418251184 -79.34793280096186
rradius 29.43551475210812
rwrist -1.9685131464095829
rhand -17.94061437690937 22.684355637663803
rfingers 7.125019999999999
rthumb 8.207979742446167 -7.189711142533644
62
root 0.4766767310341351 17.673344171743338 15.740486550457305 -1.8543395211525104 -3.1271367370855154 -5.2754561130688735
lfemur -25.49907185734189 -4.254015337608188 -14.202508473994865
ltibia 21.56537266197396
lfoot -3.5457677138488286 -5.428573860330515
ltoes -3.2260041871858713
rfemur 0.05373698795910009 5.565861846835943 30.886584557241186
rtibia 36.10335622600744
rfoot -7.187493321313861 -5.072143013082552
rtoes 1.15887524162174
lowerback 10.006565246896043 1.5353292117972697 3.4766389367399593
upperback 0.0006996109998506084 2.7523406059009337 1.4700408522401973
thorax -4.859285315867705 1.5748840182897328 -1.7013611314245385
lowerneck -15.268243821812499 -2.9226681343433594 -3.107506209171884
upperneck 22.434853795743617 -3.8583492196280527 0.859483488135533
head 9.735092818902581 -1.7558591880068937 0.281071096837069
lclavicle -1.3905263857337884e-15 -1.8578653617873924e-15
lhumerus -35.75120428911835 8.413487987141977 79.3297501999952
lradius 19.1841816048632
lwrist -1.2151046242146575
lhand -27.012322003426206 23.522253104961703
lfingers 7.125019999999999
lthumb -0.5562740304047435 53.702197480274954
rclavicle -1.3882907927138075e-15 -1.8445223117617025e-15
rhumerus -24.63536566733748 -17.397122617156114 -79.15687018608426
rradius 30.404585663996258
rwrist -1.6322436468480372
rhand -17.985419019873493 22.691797057318865
rfingers 7.125019999999999
rthumb 8.183041669983863 -7.212995747762669
63
root 0.5588968516924586 17.707943068992893 16.443504391062508 -2.6541908628696973 -2.9533203046987637 -4.044805143879196
lfemur -24.589352742149956 -4.198001619539384 -16.33007465678138
ltibia 24.831576511162076
lfoot -3.0644916174431716 -4.883337049045826
ltoes -3.181545065110111
rfemur -0.32082321051754725 4.756245459660255 29.623852467674993
rtibia 43.136795225763436
rfoot -4.989422443406877 -4.564061001818897
rtoes 2.5952903800948515
lowerback 10.064422488907873 1.5115137712563025 2.864057722961877
upperback 0.0010781951709253612 2.644377203332918 1.2730871475497423
thorax -4.897839012995878 1.5679681542642585 -1.578219032886177
lowerneck -15.313980443134874 -2.9181697162748588 -3.083604005137011
upperneck 22.574075715482874 -3.8857618880942555 0.9023303062981167
head 9.753755370045917 -1.733626549635465 0.27176483715234684
lclavicle -1.39052642822199e-15 -1.857865377540105e-15
lhumerus -35.708689178702706 8.033154594525394 79.31590452306698
lradius 18.64111607818443
lwrist -1.4894126365816809
lhand -27.02542150506935 23.465558002689175
lfingers 7.125019999999999
lthumb -0.5592673903793077 53.64335532805343
rclavicle -1.388290776458683e-15 -1.844522293191936e-15
rhumerus -25.686576755975743 -18.26787035332905 -78.88601797836293
rradius 31.13593079642617
rwrist -1.2533855980112136
rhand -18.027021481609626 22.695901949210917
rfingers 7.125019999999999
rthumb 8.167093256254885 -7.227652482566273
